#!OML:ASF H:\GeneralSubjects\Female5\Project 1\Capture day 1\Session 1\Female5.ASF
:FULLY-SPECIFIED
:DEGREES
308
root -6.04005 16.332 5.35806 -10.5954 81.9138 -22.7537
lowerback 4.32459 0.131005 2.57905
upperback -10.2378 1.05577 2.23915
thorax -13.5931 0.525941 0.816837
lowerneck -15.6114 -2.15647 -1.01058
upperneck 38.6964 -0.28039 -3.13051
head 16.5617 -0.216551 -1.11087
rclavicle 1.79403e-014 -1.27222e-014
rhumerus -48.803 26.9296 -87.9962
rradius 40.8594
rwrist -11.8215
rhand -23.2908 -20.4859
rfingers 7.12502
rthumb 3.16225 -50.4422
lclavicle 1.79403e-014 -1.27222e-014
lhumerus -36.7636 -3.20713 82.4606
lradius 35.2338
lwrist -8.83215
lhand -22.8911 31.6993
lfingers 7.12502
lthumb 3.54823 61.6495
rfemur 1.98275 33.9178 33.8389
rtibia -10.0193
rfoot -27.6586 -31.3881
rtoes 8.04072
lfemur 3.68751 -40.5272 -30.4846
ltibia -8.74475
lfoot -49.7452 3.90531
ltoes -18.9365
309
root -6.02903 16.3142 5.37076 -11.3471 81.9248 -23.3206
lowerback 4.44044 0.164612 2.51175
upperback -10.1868 1.08456 2.17786
thorax -13.6039 0.540076 0.781825
lowerneck -15.6322 -2.13798 -0.935965
upperneck 38.7396 -0.292229 -3.07674
head 16.5882 -0.201127 -1.10313
rclavicle 2.34069e-014 -3.69739e-014
rhumerus -47.6228 27.8535 -87.6634
rradius 41.6321
rwrist -11.2612
rhand -22.7854 -20.5321
rfingers 7.12502
rthumb 3.65032 -50.4806
lclavicle 2.34069e-014 -3.69739e-014
lhumerus -35.8346 -3.37049 81.8758
lradius 35.0185
lwrist -9.25017
lhand -22.2078 32.1653
lfingers 7.12502
lthumb 4.20814 62.1035
rfemur 2.31198 33.9423 34.1505
rtibia -10.0102
rfoot -27.7086 -31.4484
rtoes 7.9676
lfemur 4.13248 -40.7435 -30.6225
ltibia -8.80945
lfoot -50.118 4.28882
ltoes -19.4801
310
root -6.01664 16.3077 5.38244 -11.5062 82.0228 -23.3336
lowerback 4.48042 0.193719 2.36129
upperback -10.149 1.09274 2.08915
thorax -13.5825 0.551857 0.766705
lowerneck -15.6646 -2.13851 -0.867609
upperneck 38.8098 -0.310282 -3.06432
head 16.6324 -0.194137 -1.11421
rclavicle 1.2921e-015 -3.26007e-014
rhumerus -46.2662 28.7565 -87.14
rradius 42.4614
rwrist -10.7262
rhand -22.3784 -20.5418
rfingers 7.12502
rthumb 4.04337 -50.4832
lclavicle 1.2921e-015 -3.26007e-014
lhumerus -34.7474 -3.65325 81.2589
lradius 34.9478
lwrist -9.82475
lhand -21.4996 32.749
lfingers 7.12502
lthumb 4.892 62.6725
rfemur 2.62006 33.8974 34.319
rtibia -10.0657
rfoot -27.7444 -31.5097
rtoes 7.80818
lfemur 4.35876 -41.037 -30.7839
ltibia -8.68332
lfoot -50.4716 4.75394
ltoes -20.2065
311
root -6.00376 16.3111 5.39214 -11.473 82.1859 -23.2087
lowerback 4.4408 0.218158 2.20951
upperback -10.1238 1.09205 1.98876
thorax -13.5257 0.55967 0.741358
lowerneck -15.6922 -2.15224 -0.803963
upperneck 38.8687 -0.328711 -3.09779
head 16.6694 -0.194465 -1.14467
rclavicle 1.76918e-014 -7.15625e-015
rhumerus -44.7364 29.6367 -86.4158
rradius 43.3903
rwrist -10.3191
rhand -22.149 -20.4297
rfingers 7.12502
rthumb 4.26485 -50.3667
lclavicle 1.76918e-014 -7.15625e-015
lhumerus -33.4923 -4.04597 80.6042
lradius 35.0995
lwrist -10.3572
lhand -20.918 33.3285
lfingers 7.12502
lthumb 5.45351 63.2383
rfemur 2.8589 33.7958 34.3868
rtibia -10.1466
rfoot -27.7548 -31.5678
rtoes 7.51729
lfemur 4.27883 -41.4025 -30.849
ltibia -8.30366
lfoot -50.7808 5.22964
ltoes -21.109
312
root -5.99193 16.3208 5.4 -11.4878 82.3393 -23.1847
lowerback 4.34759 0.251215 2.08477
upperback -10.1117 1.10887 1.90557
thorax -13.4511 0.575161 0.717407
lowerneck -15.6969 -2.16682 -0.754654
upperneck 38.8896 -0.330418 -3.17086
head 16.6811 -0.196123 -1.18626
rclavicle 5.71506e-015 -1.43125e-014
rhumerus -43.0514 30.5009 -85.4765
rradius 44.4667
rwrist -10.1085
rhand -22.0948 -20.2085
rfingers 7.12502
rthumb 4.31724 -50.1445
lclavicle 5.71506e-015 -1.43125e-014
lhumerus -32.0759 -4.515 79.9114
lradius 35.5198
lwrist -10.6406
lhand -20.6877 33.7425
lfingers 7.12502
lthumb 5.67584 63.6465
rfemur 2.9883 33.7048 34.4023
rtibia -10.188
rfoot -27.705 -31.6365
rtoes 7.01626
lfemur 3.91968 -41.7733 -30.7524
ltibia -7.71888
lfoot -51.0388 5.7439
ltoes -22.1784
313
root -5.98164 16.3329 5.40461 -11.8124 82.4812 -23.5072
lowerback 4.2285 0.2893 2.039
upperback -10.1125 1.14551 1.8439
thorax -13.3755 0.594221 0.670156
lowerneck -15.6765 -2.18336 -0.75131
upperneck 38.8772 -0.320787 -3.24633
head 16.6696 -0.200663 -1.21772
rclavicle -1.09829e-014 -5.1684e-015
rhumerus -41.2128 31.3263 -84.3122
rradius 45.6929
rwrist -10.1045
rhand -22.1935 -19.9031
rfingers 7.12502
rthumb 4.22189 -49.841
lclavicle -1.09829e-014 -5.1684e-015
lhumerus -30.5146 -5.04499 79.1805
lradius 36.2255
lwrist -10.5649
lhand -20.8551 34.0341
lfingers 7.12502
lthumb 5.51422 63.9424
rfemur 3.01755 33.6173 34.4025
rtibia -10.1738
rfoot -27.5992 -31.7187
rtoes 6.32458
lfemur 3.34139 -42.1529 -30.4921
ltibia -6.97351
lfoot -51.2451 6.32446
ltoes -23.3734
314
root -5.97328 16.3439 5.40547 -12.4727 82.6184 -24.1801
lowerback 4.11721 0.329239 2.07304
upperback -10.1259 1.1979 1.80154
thorax -13.3196 0.61439 0.597235
lowerneck -15.6118 -2.19771 -0.758636
upperneck 38.8275 -0.295793 -3.34874
head 16.6277 -0.20424 -1.25505
rclavicle -3.926e-015 3.26007e-014
rhumerus -39.2135 32.0986 -82.9195
rradius 47.0341
rwrist -10.2608
rhand -22.3954 -19.5432
rfingers 7.12502
rthumb 4.02698 -49.4849
lclavicle -3.926e-015 3.26007e-014
lhumerus -28.8298 -5.62537 78.4166
lradius 37.206
lwrist -10.1168
lhand -21.3882 34.2079
lfingers 7.12502
lthumb 4.99955 64.1289
rfemur 2.96731 33.5237 34.395
rtibia -10.0934
rfoot -27.4789 -31.7876
rtoes 5.55659
lfemur 2.63105 -42.5427 -30.1161
ltibia -6.13559
lfoot -51.411 6.88854
ltoes -24.5744
315
root -5.96684 16.3524 5.40295 -13.3705 82.7588 -25.0852
lowerback 4.04481 0.369379 2.16287
upperback -10.1555 1.26111 1.77192
thorax -13.307 0.635026 0.505338
lowerneck -15.5081 -2.21694 -0.794833
upperneck 38.7822 -0.263571 -3.45713
head 16.5791 -0.208647 -1.28778
rclavicle -4.96962e-016 7.35503e-015
rhumerus -37.0622 32.7818 -81.3067
rradius 48.4473
rwrist -10.4827
rhand -22.6669 -19.2015
rfingers 7.12502
rthumb 3.76481 -49.148
lclavicle -4.96962e-016 7.35503e-015
lhumerus -27.0515 -6.26854 77.6285
lradius 38.4159
lwrist -9.33919
lhand -22.207 34.2969
lfingers 7.12502
lthumb 4.20891 64.2351
rfemur 2.86597 33.416 34.3756
rtibia -9.95027
rfoot -27.3586 -31.8366
rtoes 4.81805
lfemur 1.86743 -42.9408 -29.6823
ltibia -5.26537
lfoot -51.5539 7.36627
ltoes -25.6778
316
root -5.96153 16.3577 5.39797 -14.4851 82.9147 -26.1796
lowerback 4.0276 0.404272 2.28653
upperback -10.198 1.32505 1.75209
thorax -13.3443 0.652952 0.404761
lowerneck -15.3544 -2.24161 -0.855609
upperneck 38.7646 -0.228273 -3.55943
head 16.5334 -0.212188 -1.31226
rclavicle -6.31141e-015 -1.78906e-014
rhumerus -34.7703 33.3206 -79.4951
rradius 49.89
rwrist -10.709
rhand -23.0204 -18.9645
rfingers 7.12502
rthumb 3.42338 -48.9167
lclavicle -6.31141e-015 -1.78906e-014
lhumerus -25.2131 -7.00119 76.815
lradius 39.8186
lwrist -8.37921
lhand -23.12 34.515
lfingers 7.12502
lthumb 3.32726 64.4688
rfemur 2.75903 33.2805 34.3613
rtibia -9.76039
rfoot -27.2721 -31.8624
rtoes 4.24043
lfemur 1.0815 -40.5712 -29.1722
ltibia -4.89562
lfoot -48.9638 7.19533
ltoes -26.602
317
root -5.95623 16.3596 5.39182 -15.8068 83.0823 -27.4387
lowerback 4.06824 0.428427 2.41234
upperback -10.2442 1.37909 1.7504
thorax -13.4228 0.666592 0.323774
lowerneck -15.1497 -2.26489 -0.93992
upperneck 38.7853 -0.183953 -3.6425
head 16.4959 -0.210035 -1.32199
rclavicle 1.18774e-014 -1.33186e-014
rhumerus -32.3446 33.6852 -77.5212
rradius 51.3147
rwrist -10.9356
rhand -23.5123 -18.8799
rfingers 7.12502
rthumb 2.94836 -48.8393
lclavicle 1.18774e-014 -1.33186e-014
lhumerus -23.341 -7.81917 75.9725
lradius 41.3636
lwrist -7.35765
lhand -24.1179 34.749
lfingers 7.12502
lthumb 2.36349 64.7156
rfemur 2.68684 33.1204 34.378
rtibia -9.53681
rfoot -27.2513 -31.8632
rtoes 3.87537
lfemur 0.445873 -38.4663 -28.7837
ltibia -4.47361
lfoot -46.63 6.87931
ltoes -27.382
318
root -5.9499 16.3585 5.38537 -17.2539 83.2473 -28.7811
lowerback 4.15388 0.441008 2.51056
upperback -10.2865 1.41867 1.77357
thorax -13.5267 0.677286 0.287116
lowerneck -14.9024 -2.27804 -1.03857
upperneck 38.8444 -0.120538 -3.70649
head 16.4691 -0.196866 -1.31712
rclavicle 6.55989e-015 9.93923e-015
rhumerus -29.7987 33.8557 -75.4374
rradius 52.672
rwrist -11.1635
rhand -24.1588 -18.9427
rfingers 7.12502
rthumb 2.32403 -48.9098
lclavicle 6.55989e-015 9.93923e-015
lhumerus -21.4413 -8.62128 75.1007
lradius 42.9771
lwrist -6.39679
lhand -25.1153 34.9216
lfingers 7.12502
lthumb 1.40019 64.8967
rfemur 2.6655 32.9524 34.431
rtibia -9.29038
rfoot -27.3006 -31.8404
rtoes 3.7053
lfemur -0.0443245 -36.5745 -28.4982
ltibia -4.03792
lfoot -44.5125 6.57775
ltoes -28.1943
319
root -5.94171 16.355 5.3782 -18.7133 83.4241 -30.109
lowerback 4.25957 0.439026 2.57165
upperback -10.3212 1.43636 1.813
thorax -13.6355 0.682135 0.292216
lowerneck -14.6184 -2.27844 -1.12165
upperneck 38.928 -0.037884 -3.7719
head 16.4464 -0.171611 -1.31201
rclavicle -1.50082e-014 4.31363e-014
rhumerus -27.1706 33.8 -73.3082
rradius 53.9307
rwrist -11.404
rhand -24.8735 -19.0965
rfingers 7.12502
rthumb 1.63371 -49.07
lclavicle -1.50082e-014 4.31363e-014
lhumerus -19.5231 -9.31043 74.2222
lradius 44.6116
lwrist -5.54611
lhand -25.943 35.2646
lfingers 7.12502
lthumb 0.600785 65.2435
rfemur 2.68862 32.7678 34.4915
rtibia -9.03696
rfoot -27.5262 -31.7196
rtoes 4.00224
lfemur -0.428737 -34.8624 -28.3067
ltibia -3.59155
lfoot -42.5712 6.32705
ltoes -29.1026
320
root -5.93174 16.3502 5.37083 -19.98 83.5762 -31.2404
lowerback 4.37232 0.441213 2.58476
upperback -10.3486 1.45507 1.86167
thorax -13.7415 0.692958 0.334042
lowerneck -14.2981 -2.26374 -1.15046
upperneck 39.0107 0.0571491 -3.85336
head 16.4138 -0.134094 -1.32094
rclavicle 2.28602e-015 -2.50469e-014
rhumerus -24.5221 33.4846 -71.2112
rradius 55.065
rwrist -11.6952
rhand -25.5476 -19.2452
rfingers 7.12502
rthumb 0.98267 -49.2227
lclavicle 2.28602e-015 -2.50469e-014
lhumerus -17.6045 -9.83318 73.3767
lradius 46.242
lwrist -4.80392
lhand -26.6035 35.9328
lfingers 7.12502
lthumb -0.0371824 65.9125
rfemur 2.71149 32.6126 34.5366
rtibia -8.75155
rfoot -28.088 -31.372
rtoes 5.24835
lfemur -0.726987 -33.3382 -28.1866
ltibia -3.16203
lfoot -40.8621 6.12123
ltoes -30.0194
